<mxfile host="app.diagrams.net" modified="2022-11-09T07:40:18.974Z" agent="5.0 (Windows NT 10.0; Win64; x64) AppleWebKit/537.36 (KHTML, like Gecko) Chrome/107.0.0.0 Safari/537.36 Edg/107.0.1418.35" etag="uw9o2PriJArNYgUU1aMn" version="20.5.3" type="github">
  <diagram id="YdrTk5xF7BeEkyoxVGFi" name="第 1 页">
    <mxGraphModel dx="948" dy="520" grid="1" gridSize="10" guides="1" tooltips="1" connect="1" arrows="1" fold="1" page="1" pageScale="1" pageWidth="827" pageHeight="1169" math="0" shadow="0">
      <root>
        <mxCell id="0" />
        <mxCell id="1" parent="0" />
        <mxCell id="qlAL_v98anyyaGD7FWK8-10" style="edgeStyle=orthogonalEdgeStyle;rounded=0;orthogonalLoop=1;jettySize=auto;html=1;fontSize=17;" edge="1" parent="1" source="qlAL_v98anyyaGD7FWK8-1" target="qlAL_v98anyyaGD7FWK8-8">
          <mxGeometry relative="1" as="geometry" />
        </mxCell>
        <mxCell id="qlAL_v98anyyaGD7FWK8-1" value="&lt;font style=&quot;font-size: 17px;&quot;&gt;输入图片&lt;/font&gt;" style="rounded=0;whiteSpace=wrap;html=1;" vertex="1" parent="1">
          <mxGeometry x="20" y="188" width="80" height="30" as="geometry" />
        </mxCell>
        <mxCell id="qlAL_v98anyyaGD7FWK8-2" value="&lt;font style=&quot;font-size: 17px;&quot;&gt;图片处理&lt;/font&gt;" style="rounded=0;whiteSpace=wrap;html=1;" vertex="1" parent="1">
          <mxGeometry x="147.5" y="187.5" width="80" height="30" as="geometry" />
        </mxCell>
        <mxCell id="qlAL_v98anyyaGD7FWK8-3" value="&lt;font style=&quot;font-size: 17px;&quot;&gt;机器视觉模型&lt;/font&gt;" style="rounded=0;whiteSpace=wrap;html=1;" vertex="1" parent="1">
          <mxGeometry x="270" y="177.5" width="80" height="50" as="geometry" />
        </mxCell>
        <mxCell id="qlAL_v98anyyaGD7FWK8-16" style="edgeStyle=orthogonalEdgeStyle;rounded=0;orthogonalLoop=1;jettySize=auto;html=1;entryX=0;entryY=0.5;entryDx=0;entryDy=0;fontSize=17;" edge="1" parent="1" source="qlAL_v98anyyaGD7FWK8-4" target="qlAL_v98anyyaGD7FWK8-13">
          <mxGeometry relative="1" as="geometry" />
        </mxCell>
        <mxCell id="qlAL_v98anyyaGD7FWK8-17" style="edgeStyle=orthogonalEdgeStyle;rounded=0;orthogonalLoop=1;jettySize=auto;html=1;entryX=0;entryY=0.5;entryDx=0;entryDy=0;fontSize=17;" edge="1" parent="1" source="qlAL_v98anyyaGD7FWK8-4" target="qlAL_v98anyyaGD7FWK8-14">
          <mxGeometry relative="1" as="geometry" />
        </mxCell>
        <mxCell id="qlAL_v98anyyaGD7FWK8-18" style="edgeStyle=orthogonalEdgeStyle;rounded=0;orthogonalLoop=1;jettySize=auto;html=1;entryX=0;entryY=0.5;entryDx=0;entryDy=0;fontSize=17;" edge="1" parent="1" source="qlAL_v98anyyaGD7FWK8-4" target="qlAL_v98anyyaGD7FWK8-15">
          <mxGeometry relative="1" as="geometry" />
        </mxCell>
        <mxCell id="qlAL_v98anyyaGD7FWK8-4" value="&lt;font style=&quot;font-size: 17px;&quot;&gt;决策结果&lt;/font&gt;" style="rounded=0;whiteSpace=wrap;html=1;" vertex="1" parent="1">
          <mxGeometry x="390" y="188" width="80" height="30" as="geometry" />
        </mxCell>
        <mxCell id="qlAL_v98anyyaGD7FWK8-21" style="edgeStyle=orthogonalEdgeStyle;rounded=0;orthogonalLoop=1;jettySize=auto;html=1;entryX=0;entryY=0.5;entryDx=0;entryDy=0;fontSize=17;" edge="1" parent="1" source="qlAL_v98anyyaGD7FWK8-8" target="qlAL_v98anyyaGD7FWK8-20">
          <mxGeometry relative="1" as="geometry" />
        </mxCell>
        <mxCell id="qlAL_v98anyyaGD7FWK8-8" value="" style="rounded=1;whiteSpace=wrap;html=1;fontSize=17;dashed=1;fillStyle=auto;fillColor=none;strokeColor=#000000;" vertex="1" parent="1">
          <mxGeometry x="140" y="180" width="95" height="45" as="geometry" />
        </mxCell>
        <mxCell id="qlAL_v98anyyaGD7FWK8-13" value="&lt;span style=&quot;font-size: 17px;&quot;&gt;品种识别&lt;/span&gt;" style="rounded=0;whiteSpace=wrap;html=1;" vertex="1" parent="1">
          <mxGeometry x="510" y="130" width="80" height="30" as="geometry" />
        </mxCell>
        <mxCell id="qlAL_v98anyyaGD7FWK8-14" value="&lt;span style=&quot;font-size: 17px;&quot;&gt;鱼群计数&lt;/span&gt;" style="rounded=0;whiteSpace=wrap;html=1;" vertex="1" parent="1">
          <mxGeometry x="510" y="170" width="80" height="30" as="geometry" />
        </mxCell>
        <mxCell id="qlAL_v98anyyaGD7FWK8-15" value="&lt;span style=&quot;font-size: 17px;&quot;&gt;行为识别&lt;/span&gt;" style="rounded=0;whiteSpace=wrap;html=1;" vertex="1" parent="1">
          <mxGeometry x="510" y="240" width="80" height="30" as="geometry" />
        </mxCell>
        <mxCell id="qlAL_v98anyyaGD7FWK8-19" value="......" style="text;html=1;align=center;verticalAlign=middle;resizable=0;points=[];autosize=1;strokeColor=none;fillColor=none;fontSize=17;" vertex="1" parent="1">
          <mxGeometry x="523" y="203" width="50" height="30" as="geometry" />
        </mxCell>
        <mxCell id="qlAL_v98anyyaGD7FWK8-22" style="edgeStyle=orthogonalEdgeStyle;rounded=0;orthogonalLoop=1;jettySize=auto;html=1;entryX=0;entryY=0.5;entryDx=0;entryDy=0;fontSize=17;" edge="1" parent="1" source="qlAL_v98anyyaGD7FWK8-20" target="qlAL_v98anyyaGD7FWK8-4">
          <mxGeometry relative="1" as="geometry" />
        </mxCell>
        <mxCell id="qlAL_v98anyyaGD7FWK8-20" value="" style="rounded=1;whiteSpace=wrap;html=1;fontSize=17;fillStyle=auto;fillColor=none;strokeColor=#FF3333;" vertex="1" parent="1">
          <mxGeometry x="262.5" y="169" width="95" height="70" as="geometry" />
        </mxCell>
      </root>
    </mxGraphModel>
  </diagram>
</mxfile>
